Patient4_TMGait_0pt2_02_right_22_EMG.mot
version=1
nRows=16
nColumns=33
inDegrees=no
endheader
time	1LAddLong	2LGlutMax	3LGlutMed	4LIliopsoas	5LSemiMemb	6LBicFemLong	7LRecFem	8LVastMed	9LVastLat	10LGasMed	11LTibAnt	12lTibPost	13LPeroneusLong	14LSol	15LExtDigLong	16LFlexDigLong	17RAddLong	18RGlutMax	19RGlutMed	20RIliopsoas	21RSemiMemb	22RBicFemLong	23RRecFem	24RVastMed	25RVastLat	26RGasMed	27RTibAnt	28RTibPost	29RPeroneusLong	30RSol	31RExtDigLong	32RFlexDigLong
48.65	0.029144	0.058746	0.02182	0.017395	0.007629	-0.11536	0.14069	-0.003357	0.019836	0.016327	-0.006104	-0.012665	-0.02121	0.077362	0.040131	0.003204	0.026093	-0.03006	0.38315	-0.16144	0.15228	-0.018005	-0.50949	-0.024261	-0.013123	-0.002594	0.24887	-0.009766	0.084381	-0.21957	-0.002289	0.001831
48.651	0.030975	0.074921	0.010681	-0.002136	0.016174	-0.26382	0.15289	-0.03067	0.11643	-0.020905	-0.04364	-0.0177	-0.022736	0.057983	0.076141	-0.002441	0.012512	-0.096588	-0.48401	-0.061188	0.15579	-0.001526	-0.39581	-0.059204	-0.024261	-0.005646	0.23239	-0.011444	0.020142	-0.16235	-0.006104	0.002441
48.652	0.037079	0.11169	0.15442	0.012054	0.043793	0.12329	0.17364	0.005493	0.16388	-0.000916	-0.061035	-0.014954	0.20264	-0.034332	0.027313	-0.009308	0.011749	-0.037994	-0.67612	-0.044556	0.15213	0.018311	-0.25207	-0.023346	-0.029297	-0.008545	0.26337	-0.008392	-0.020447	-0.087738	-0.007477	0.001526
48.653	0.027466	0.11169	0.12695	-0.009308	0.014038	0.18631	0.19379	0.015106	0.12894	0.015869	-0.021973	-0.013885	0.098267	-0.007629	0.009918	-0.007935	0.041351	-0.036621	-0.87189	0.012512	0.14435	0.023651	-0.19333	0.016327	-0.013275	-0.004425	0.067902	-0.007782	-0.047302	-0.03418	-0.004425	0.012512
48.654	0.034027	0.10635	0.057678	-0.01709	0.007477	-0.14526	0.07019	0.019379	0.042572	0.022583	-0.046692	-0.009308	0.030518	0.072632	-0.080109	-0.005493	0.060425	0.014496	-0.70725	0.030975	0.14648	0.03006	-0.069275	-0.036774	-0.009003	-0.011444	-0.003662	-0.009613	-0.048065	0.070343	-0.005798	0.001678
48.655	0.020294	0.047607	-0.062103	-0.01236	0.005493	-0.096741	-0.019989	0.002899	-0.032349	0.020447	-0.032349	-0.001984	0.12878	0.08255	-0.2475	-0.00473	0.040741	0.06485	0.81009	-0.063171	0.15182	0.039215	-0.030975	-0.012054	0.019379	-0.015259	0.096741	-0.009918	-0.11444	0.095367	-0.001984	0.005798
48.656	-0.002136	0.072327	-0.11688	0.000458	-0.012665	0.11047	0.066528	0.004578	-0.054932	0.010681	0.1088	-0.014648	0.22598	0.13733	-0.16602	-0.01297	0.010223	0.01358	1.226	-0.080109	0.1503	0.045776	0.011902	0.010681	0.043488	-0.014648	0.30289	-0.012207	-0.19226	0.091858	-0.004272	0.002289
48.657	-0.030975	0.081635	-0.12573	0.013428	-0.025024	0.14679	0.097809	0.048523	-0.14282	0.020294	0.13077	-0.009003	0.12787	0.14175	0.06012	-0.014191	-0.010376	-0.066071	1.0738	-0.005188	0.15259	0.079956	-0.010071	0.047302	0.071716	-0.019531	0.46768	-0.010529	-0.24216	0.046234	-0.006104	-0.009766
48.658	-0.055542	0.095215	0.026398	0.003815	-0.031586	0.19791	-0.013428	0.040283	-0.1976	0.008545	0.12894	-0.00473	-0.049896	0.081177	0.14633	-0.024109	-0.028076	-0.12299	0.20676	0.056763	0.14969	0.097351	-0.18036	0.025482	0.088348	-0.012207	0.36865	-0.009003	-0.18799	-0.013428	-0.007629	-0.008545
48.659	-0.054169	0.047455	0.070343	-0.006866	-0.035248	0.10407	-0.0737	0.023804	-0.24536	0.021515	0.13184	-0.01236	-0.07431	0.021057	0.1329	-0.025482	-0.021515	-0.16922	-0.34851	-0.053406	0.14587	0.062866	-0.1741	-0.02182	0.068512	-0.012054	0.072784	-0.007172	-0.14328	-0.022125	-0.003357	-0.007935
48.66	-0.072327	0.075226	0.17777	-0.030823	-0.032654	-0.2298	0.007477	0.021362	-0.26047	0.032349	0.07843	-0.001526	-0.022278	0.006561	0.097961	-0.021515	-0.019989	-0.075836	-0.14297	-0.14145	0.14938	0.069733	-0.34149	0.013123	0.034332	-0.011444	0.075989	-0.007477	-0.16098	-0.03006	-0.009766	-0.003357
48.661	-0.080261	0.063477	0.20065	-0.011139	-0.027161	-0.27847	0.071259	0.045471	-0.21194	0.00885	-0.045471	-0.014801	0.070038	-0.005951	0.05188	-0.010681	0.00351	-0.014496	0.29816	-0.19867	0.14267	0.033875	-0.48508	-0.009155	0.022736	-0.009766	0.1474	-0.008087	-0.099792	-0.071106	-0.006256	-0.003357
48.662	-0.06424	0.082703	0.18341	0.005188	-0.016174	-0.14801	-0.018005	0.085907	-0.16632	0.016174	-0.055695	-0.018311	0.25421	-0.031738	0.024261	-0.015106	0.007935	-0.006714	0.26642	-0.16007	0.12741	0.005493	-0.30991	-0.073395	-0.023651	-0.011444	0.51727	-0.008392	-0.12604	-0.11429	-0.005493	0.002136
48.663	-0.041199	0.10422	0.14358	0.007629	-0.014038	-0.030823	-0.13153	0.053711	-0.09613	0.007477	-0.088043	-0.00946	0.20935	0.011444	-0.048828	-0.00824	0.009308	0.002136	0.34973	0.000916	0.11566	-0.036163	-0.13214	-0.004425	-0.047302	-0.012207	0.81039	-0.009155	-0.063171	-0.10559	-0.003204	0.002594
48.664	-0.020142	0.007477	-0.039673	0.017242	-0.022888	0.20309	-0.099487	0.043793	-0.001678	0.035706	-0.093994	-0.009613	-0.061035	0.000916	-0.087128	-0.028839	0.021667	0.043182	0.26108	0.087128	0.11093	-0.07019	-0.071411	-0.031281	-0.043793	-0.014496	0.64972	-0.003815	0.13016	-0.14771	-0.005341	-0.008087
48.665	0.028534	-0.031891	-0.21347	0.016174	0.005493	0.28717	0.009766	0.021057	0.14038	0.001831	-0.049438	-0.009155	0.27435	0.074768	0.081329	-0.012817	0.019226	0.040436	-0.13184	0.037079	0.094757	-0.057068	-0.008698	-0.032043	-0.053864	-0.007935	0.079193	-0.006104	0.1384	-0.21393	-0.006561	-0.002289
